<mxfile host="app.diagrams.net" agent="Mozilla/5.0 (Windows NT 10.0; Win64; x64) AppleWebKit/537.36 (KHTML, like Gecko) Chrome/129.0.0.0 Safari/537.36" version="24.7.16">
  <diagram name="Page-1" id="9gplATvjYJMHdVLSpduB">
    <mxGraphModel dx="1877" dy="1699" grid="1" gridSize="10" guides="1" tooltips="1" connect="1" arrows="1" fold="1" page="1" pageScale="1" pageWidth="827" pageHeight="1169" math="0" shadow="0">
      <root>
        <mxCell id="0" />
        <mxCell id="1" parent="0" />
        <mxCell id="oHGdo065IPko6eHT7Yuo-1" value="Application de gestion de candidature de stage" style="shape=umlLifeline;perimeter=lifelinePerimeter;whiteSpace=wrap;html=1;container=0;dropTarget=0;collapsible=0;recursiveResize=0;outlineConnect=0;portConstraint=eastwest;newEdgeStyle={&quot;edgeStyle&quot;:&quot;elbowEdgeStyle&quot;,&quot;elbow&quot;:&quot;vertical&quot;,&quot;curved&quot;:0,&quot;rounded&quot;:0};" parent="1" vertex="1">
          <mxGeometry x="-370" y="-30" width="166" height="770" as="geometry" />
        </mxCell>
        <mxCell id="oHGdo065IPko6eHT7Yuo-2" value="" style="html=1;points=[[0,0,0,0,5],[0,1,0,0,-5],[1,0,0,0,5],[1,1,0,0,-5]];perimeter=orthogonalPerimeter;outlineConnect=0;targetShapes=umlLifeline;portConstraint=eastwest;newEdgeStyle={&quot;curved&quot;:0,&quot;rounded&quot;:0};" parent="oHGdo065IPko6eHT7Yuo-1" vertex="1">
          <mxGeometry x="78" y="50" width="10" height="440" as="geometry" />
        </mxCell>
        <mxCell id="oHGdo065IPko6eHT7Yuo-7" value="" style="shape=umlLifeline;perimeter=lifelinePerimeter;whiteSpace=wrap;html=1;container=1;dropTarget=0;collapsible=0;recursiveResize=0;outlineConnect=0;portConstraint=eastwest;newEdgeStyle={&quot;curved&quot;:0,&quot;rounded&quot;:0};participant=umlActor;" parent="1" vertex="1">
          <mxGeometry x="-520" y="-54" width="20" height="860" as="geometry" />
        </mxCell>
        <mxCell id="oHGdo065IPko6eHT7Yuo-141" value="" style="html=1;points=[[0,0,0,0,5],[0,1,0,0,-5],[1,0,0,0,5],[1,1,0,0,-5]];perimeter=orthogonalPerimeter;outlineConnect=0;targetShapes=umlLifeline;portConstraint=eastwest;newEdgeStyle={&quot;curved&quot;:0,&quot;rounded&quot;:0};" parent="oHGdo065IPko6eHT7Yuo-7" vertex="1">
          <mxGeometry x="5" y="174" width="10" height="356" as="geometry" />
        </mxCell>
        <mxCell id="oHGdo065IPko6eHT7Yuo-8" value="&lt;span style=&quot;color: rgb(32, 33, 36); font-family: &amp;quot;Google Sans&amp;quot;, Arial, sans-serif; text-align: left; background-color: rgb(255, 255, 255);&quot;&gt;&lt;font style=&quot;font-size: 12px;&quot;&gt;Ã‰tudiant&lt;/font&gt;&lt;/span&gt;" style="text;whiteSpace=wrap;html=1;align=center;" parent="1" vertex="1">
          <mxGeometry x="-565" y="-22" width="110" height="50" as="geometry" />
        </mxCell>
        <mxCell id="oHGdo065IPko6eHT7Yuo-9" value="&lt;p data-pm-slice=&quot;1 1 []&quot;&gt;S&#39;authentifier&lt;/p&gt;" style="html=1;verticalAlign=bottom;endArrow=block;curved=0;rounded=0;labelBackgroundColor=none;" parent="1" edge="1">
          <mxGeometry x="0.0001" y="-13" relative="1" as="geometry">
            <mxPoint x="-503" y="130" as="sourcePoint" />
            <mxPoint x="-292.73" y="130" as="targetPoint" />
            <mxPoint as="offset" />
          </mxGeometry>
        </mxCell>
        <mxCell id="oHGdo065IPko6eHT7Yuo-12" style="edgeStyle=orthogonalEdgeStyle;rounded=0;orthogonalLoop=1;jettySize=auto;html=1;exitX=0.5;exitY=1;exitDx=0;exitDy=0;" parent="1" source="oHGdo065IPko6eHT7Yuo-8" target="oHGdo065IPko6eHT7Yuo-8" edge="1">
          <mxGeometry relative="1" as="geometry" />
        </mxCell>
        <mxCell id="oHGdo065IPko6eHT7Yuo-18" value="" style="html=1;verticalAlign=bottom;endArrow=none;endSize=8;curved=0;rounded=0;endFill=0;entryX=0;entryY=1;entryDx=0;entryDy=-5;entryPerimeter=0;startArrow=open;startFill=0;dashed=1;" parent="1" edge="1">
          <mxGeometry x="-0.0189" relative="1" as="geometry">
            <mxPoint x="-293.5" y="244.88" as="targetPoint" />
            <mxPoint x="-504" y="245" as="sourcePoint" />
            <mxPoint as="offset" />
          </mxGeometry>
        </mxCell>
        <mxCell id="oHGdo065IPko6eHT7Yuo-50" value="Interface web de mesure de performance (UI ReactJS)" style="shape=umlLifeline;perimeter=lifelinePerimeter;whiteSpace=wrap;html=1;container=0;dropTarget=0;collapsible=0;recursiveResize=0;outlineConnect=0;portConstraint=eastwest;newEdgeStyle={&quot;edgeStyle&quot;:&quot;elbowEdgeStyle&quot;,&quot;elbow&quot;:&quot;vertical&quot;,&quot;curved&quot;:0,&quot;rounded&quot;:0};" parent="1" vertex="1">
          <mxGeometry x="-545" y="1020" width="166" height="770" as="geometry" />
        </mxCell>
        <mxCell id="oHGdo065IPko6eHT7Yuo-51" value="&lt;span style=&quot;color: rgba(0, 0, 0, 0); font-family: monospace; font-size: 0px; text-align: start;&quot;&gt;%3CmxGraphModel%3E%3Croot%3E%3CmxCell%20id%3D%220%22%2F%3E%3CmxCell%20id%3D%221%22%20parent%3D%220%22%2F%3E%3CmxCell%20id%3D%222%22%20value%3D%22%22%20style%3D%22html%3D1%3Bpoints%3D%5B%5B0%2C0%2C0%2C0%2C5%5D%2C%5B0%2C1%2C0%2C0%2C-5%5D%2C%5B1%2C0%2C0%2C0%2C5%5D%2C%5B1%2C1%2C0%2C0%2C-5%5D%5D%3Bperimeter%3DorthogonalPerimeter%3BoutlineConnect%3D0%3BtargetShapes%3DumlLifeline%3BportConstraint%3Deastwest%3BnewEdgeStyle%3D%7B%26quot%3Bcurved%26quot%3B%3A0%2C%26quot%3Brounded%26quot%3B%3A0%7D%3B%22%20vertex%3D%221%22%20parent%3D%221%22%3E%3CmxGeometry%20x%3D%22-467%22%20y%3D%221100%22%20width%3D%2210%22%20height%3D%2212%22%20as%3D%22geometry%22%2F%3E%3C%2FmxCell%3E%3C%2Froot%3E%3C%2FmxGraphModel%3E&lt;/span&gt;&lt;span style=&quot;color: rgba(0, 0, 0, 0); font-family: monospace; font-size: 0px; text-align: start;&quot;&gt;%3CmxGraphModel%3E%3Croot%3E%3CmxCell%20id%3D%220%22%2F%3E%3CmxCell%20id%3D%221%22%20parent%3D%220%22%2F%3E%3CmxCell%20id%3D%222%22%20value%3D%22%22%20style%3D%22html%3D1%3Bpoints%3D%5B%5B0%2C0%2C0%2C0%2C5%5D%2C%5B0%2C1%2C0%2C0%2C-5%5D%2C%5B1%2C0%2C0%2C0%2C5%5D%2C%5B1%2C1%2C0%2C0%2C-5%5D%5D%3Bperimeter%3DorthogonalPerimeter%3BoutlineConnect%3D0%3BtargetShapes%3DumlLifeline%3BportConstraint%3Deastwest%3BnewEdgeStyle%3D%7B%26quot%3Bcurved%26quot%3B%3A0%2C%26quot%3Brounded%26quot%3B%3A0%7D%3B%22%20vertex%3D%221%22%20parent%3D%221%22%3E%3CmxGeometry%20x%3D%22-467%22%20y%3D%221100%22%20width%3D%2210%22%20height%3D%2212%22%20as%3D%22geometry%22%2F%3E%3C%2FmxCell%3E%3C%2Froot%3E%3C%2FmxGraphModel%3E&lt;/span&gt;" style="html=1;points=[[0,0,0,0,5],[0,1,0,0,-5],[1,0,0,0,5],[1,1,0,0,-5]];perimeter=orthogonalPerimeter;outlineConnect=0;targetShapes=umlLifeline;portConstraint=eastwest;newEdgeStyle={&quot;curved&quot;:0,&quot;rounded&quot;:0};" parent="oHGdo065IPko6eHT7Yuo-50" vertex="1">
          <mxGeometry x="78" y="210" width="10" height="240" as="geometry" />
        </mxCell>
        <mxCell id="oHGdo065IPko6eHT7Yuo-52" value="Backend(flask)" style="shape=umlLifeline;perimeter=lifelinePerimeter;whiteSpace=wrap;html=1;container=0;dropTarget=0;collapsible=0;recursiveResize=0;outlineConnect=0;portConstraint=eastwest;newEdgeStyle={&quot;edgeStyle&quot;:&quot;elbowEdgeStyle&quot;,&quot;elbow&quot;:&quot;vertical&quot;,&quot;curved&quot;:0,&quot;rounded&quot;:0};" parent="1" vertex="1">
          <mxGeometry x="-331.99999999999994" y="1020" width="140" height="860" as="geometry" />
        </mxCell>
        <mxCell id="oHGdo065IPko6eHT7Yuo-53" value="&lt;span style=&quot;color: rgba(0, 0, 0, 0); font-family: monospace; font-size: 0px; text-align: start;&quot;&gt;%3CmxGraphModel%3E%3Croot%3E%3CmxCell%20id%3D%220%22%2F%3E%3CmxCell%20id%3D%221%22%20parent%3D%220%22%2F%3E%3CmxCell%20id%3D%222%22%20value%3D%22%22%20style%3D%22html%3D1%3Bpoints%3D%5B%5B0%2C0%2C0%2C0%2C5%5D%2C%5B0%2C1%2C0%2C0%2C-5%5D%2C%5B1%2C0%2C0%2C0%2C5%5D%2C%5B1%2C1%2C0%2C0%2C-5%5D%5D%3Bperimeter%3DorthogonalPerimeter%3BoutlineConnect%3D0%3BtargetShapes%3DumlLifeline%3BportConstraint%3Deastwest%3BnewEdgeStyle%3D%7B%26quot%3Bcurved%26quot%3B%3A0%2C%26quot%3Brounded%26quot%3B%3A0%7D%3B%22%20vertex%3D%221%22%20parent%3D%221%22%3E%3CmxGeometry%20x%3D%22-467%22%20y%3D%221100%22%20width%3D%2210%22%20height%3D%2212%22%20as%3D%22geometry%22%2F%3E%3C%2FmxCell%3E%3C%2Froot%3E%3C%2FmxGraphModel%3E&lt;/span&gt;&lt;span style=&quot;color: rgba(0, 0, 0, 0); font-family: monospace; font-size: 0px; text-align: start;&quot;&gt;%3CmxGraphModel%3E%3Croot%3E%3CmxCell%20id%3D%220%22%2F%3E%3CmxCell%20id%3D%221%22%20parent%3D%220%22%2F%3E%3CmxCell%20id%3D%222%22%20value%3D%22%22%20style%3D%22html%3D1%3Bpoints%3D%5B%5B0%2C0%2C0%2C0%2C5%5D%2C%5B0%2C1%2C0%2C0%2C-5%5D%2C%5B1%2C0%2C0%2C0%2C5%5D%2C%5B1%2C1%2C0%2C0%2C-5%5D%5D%3Bperimeter%3DorthogonalPerimeter%3BoutlineConnect%3D0%3BtargetShapes%3DumlLifeline%3BportConstraint%3Deastwest%3BnewEdgeStyle%3D%7B%26quot%3Bcurved%26quot%3B%3A0%2C%26quot%3Brounded%26quot%3B%3A0%7D%3B%22%20vertex%3D%221%22%20parent%3D%221%22%3E%3CmxGeometry%20x%3D%22-467%22%20y%3D%221100%22%20width%3D%2210%22%20height%3D%2212%22%20as%3D%22geometry%22%2F%3E%3C%2FmxCell%3E%3C%2Froot%3E%3C%2FmxGraphModel%3E&lt;/span&gt;" style="html=1;points=[[0,0,0,0,5],[0,1,0,0,-5],[1,0,0,0,5],[1,1,0,0,-5]];perimeter=orthogonalPerimeter;outlineConnect=0;targetShapes=umlLifeline;portConstraint=eastwest;newEdgeStyle={&quot;curved&quot;:0,&quot;rounded&quot;:0};" parent="oHGdo065IPko6eHT7Yuo-52" vertex="1">
          <mxGeometry x="65" y="210" width="10" height="140" as="geometry" />
        </mxCell>
        <mxCell id="oHGdo065IPko6eHT7Yuo-54" value="&lt;span style=&quot;color: rgba(0, 0, 0, 0); font-family: monospace; font-size: 0px; text-align: start;&quot;&gt;%3CmxGraphModel%3E%3Croot%3E%3CmxCell%20id%3D%220%22%2F%3E%3CmxCell%20id%3D%221%22%20parent%3D%220%22%2F%3E%3CmxCell%20id%3D%222%22%20value%3D%22%22%20style%3D%22html%3D1%3Bpoints%3D%5B%5B0%2C0%2C0%2C0%2C5%5D%2C%5B0%2C1%2C0%2C0%2C-5%5D%2C%5B1%2C0%2C0%2C0%2C5%5D%2C%5B1%2C1%2C0%2C0%2C-5%5D%5D%3Bperimeter%3DorthogonalPerimeter%3BoutlineConnect%3D0%3BtargetShapes%3DumlLifeline%3BportConstraint%3Deastwest%3BnewEdgeStyle%3D%7B%26quot%3Bcurved%26quot%3B%3A0%2C%26quot%3Brounded%26quot%3B%3A0%7D%3B%22%20vertex%3D%221%22%20parent%3D%221%22%3E%3CmxGeometry%20x%3D%22-467%22%20y%3D%221100%22%20width%3D%2210%22%20height%3D%2212%22%20as%3D%22geometry%22%2F%3E%3C%2FmxCell%3E%3C%2Froot%3E%3C%2FmxGraphModel%3E&lt;/span&gt;&lt;span style=&quot;color: rgba(0, 0, 0, 0); font-family: monospace; font-size: 0px; text-align: start;&quot;&gt;%3CmxGraphModel%3E%3Croot%3E%3CmxCell%20id%3D%220%22%2F%3E%3CmxCell%20id%3D%221%22%20parent%3D%220%22%2F%3E%3CmxCell%20id%3D%222%22%20value%3D%22%22%20style%3D%22html%3D1%3Bpoints%3D%5B%5B0%2C0%2C0%2C0%2C5%5D%2C%5B0%2C1%2C0%2C0%2C-5%5D%2C%5B1%2C0%2C0%2C0%2C5%5D%2C%5B1%2C1%2C0%2C0%2C-5%5D%5D%3Bperimeter%3DorthogonalPerimeter%3BoutlineConnect%3D0%3BtargetShapes%3DumlLifeline%3BportConstraint%3Deastwest%3BnewEdgeStyle%3D%7B%26quot%3Bcurved%26quot%3B%3A0%2C%26quot%3Brounded%26quot%3B%3A0%7D%3B%22%20vertex%3D%221%22%20parent%3D%221%22%3E%3CmxGeometry%20x%3D%22-467%22%20y%3D%221100%22%20width%3D%2210%22%20height%3D%2212%22%20as%3D%22geometry%22%2F%3E%3C%2FmxCell%3E%3C%2Froot%3E%3C%2FmxGraphModel%3E&lt;/span&gt;" style="html=1;points=[[0,0,0,0,5],[0,1,0,0,-5],[1,0,0,0,5],[1,1,0,0,-5]];perimeter=orthogonalPerimeter;outlineConnect=0;targetShapes=umlLifeline;portConstraint=eastwest;newEdgeStyle={&quot;curved&quot;:0,&quot;rounded&quot;:0};" parent="oHGdo065IPko6eHT7Yuo-52" vertex="1">
          <mxGeometry x="63.99999999999994" y="400" width="10" height="40" as="geometry" />
        </mxCell>
        <mxCell id="oHGdo065IPko6eHT7Yuo-55" value="Base de donnÃ©e(PostgresSQL)" style="shape=umlLifeline;perimeter=lifelinePerimeter;whiteSpace=wrap;html=1;container=0;dropTarget=0;collapsible=0;recursiveResize=0;outlineConnect=0;portConstraint=eastwest;newEdgeStyle={&quot;edgeStyle&quot;:&quot;elbowEdgeStyle&quot;,&quot;elbow&quot;:&quot;vertical&quot;,&quot;curved&quot;:0,&quot;rounded&quot;:0};" parent="1" vertex="1">
          <mxGeometry x="152" y="1020" width="145" height="860" as="geometry" />
        </mxCell>
        <mxCell id="oHGdo065IPko6eHT7Yuo-56" value="&lt;span style=&quot;color: rgba(0, 0, 0, 0); font-family: monospace; font-size: 0px; text-align: start;&quot;&gt;%3CmxGraphModel%3E%3Croot%3E%3CmxCell%20id%3D%220%22%2F%3E%3CmxCell%20id%3D%221%22%20parent%3D%220%22%2F%3E%3CmxCell%20id%3D%222%22%20value%3D%22%22%20style%3D%22html%3D1%3Bpoints%3D%5B%5B0%2C0%2C0%2C0%2C5%5D%2C%5B0%2C1%2C0%2C0%2C-5%5D%2C%5B1%2C0%2C0%2C0%2C5%5D%2C%5B1%2C1%2C0%2C0%2C-5%5D%5D%3Bperimeter%3DorthogonalPerimeter%3BoutlineConnect%3D0%3BtargetShapes%3DumlLifeline%3BportConstraint%3Deastwest%3BnewEdgeStyle%3D%7B%26quot%3Bcurved%26quot%3B%3A0%2C%26quot%3Brounded%26quot%3B%3A0%7D%3B%22%20vertex%3D%221%22%20parent%3D%221%22%3E%3CmxGeometry%20x%3D%22-467%22%20y%3D%221100%22%20width%3D%2210%22%20height%3D%2212%22%20as%3D%22geometry%22%2F%3E%3C%2FmxCell%3E%3C%2Froot%3E%3C%2FmxGraphModel%3E&lt;/span&gt;&lt;span style=&quot;color: rgba(0, 0, 0, 0); font-family: monospace; font-size: 0px; text-align: start;&quot;&gt;%3CmxGraphModel%3E%3Croot%3E%3CmxCell%20id%3D%220%22%2F%3E%3CmxCell%20id%3D%221%22%20parent%3D%220%22%2F%3E%3CmxCell%20id%3D%222%22%20value%3D%22%22%20style%3D%22html%3D1%3Bpoints%3D%5B%5B0%2C0%2C0%2C0%2C5%5D%2C%5B0%2C1%2C0%2C0%2C-5%5D%2C%5B1%2C0%2C0%2C0%2C5%5D%2C%5B1%2C1%2C0%2C0%2C-5%5D%5D%3Bperimeter%3DorthogonalPerimeter%3BoutlineConnect%3D0%3BtargetShapes%3DumlLifeline%3BportConstraint%3Deastwest%3BnewEdgeStyle%3D%7B%26quot%3Bcurved%26quot%3B%3A0%2C%26quot%3Brounded%26quot%3B%3A0%7D%3B%22%20vertex%3D%221%22%20parent%3D%221%22%3E%3CmxGeometry%20x%3D%22-467%22%20y%3D%221100%22%20width%3D%2210%22%20height%3D%2212%22%20as%3D%22geometry%22%2F%3E%3C%2FmxCell%3E%3C%2Froot%3E%3C%2FmxGraphModel%3E&lt;/span&gt;" style="html=1;points=[[0,0,0,0,5],[0,1,0,0,-5],[1,0,0,0,5],[1,1,0,0,-5]];perimeter=orthogonalPerimeter;outlineConnect=0;targetShapes=umlLifeline;portConstraint=eastwest;newEdgeStyle={&quot;curved&quot;:0,&quot;rounded&quot;:0};" parent="oHGdo065IPko6eHT7Yuo-55" vertex="1">
          <mxGeometry x="67.5" y="400" width="10" height="40" as="geometry" />
        </mxCell>
        <mxCell id="oHGdo065IPko6eHT7Yuo-57" value="" style="shape=umlLifeline;perimeter=lifelinePerimeter;whiteSpace=wrap;html=1;container=1;dropTarget=0;collapsible=0;recursiveResize=0;outlineConnect=0;portConstraint=eastwest;newEdgeStyle={&quot;curved&quot;:0,&quot;rounded&quot;:0};participant=umlActor;" parent="1" vertex="1">
          <mxGeometry x="-692" y="1010" width="20" height="860" as="geometry" />
        </mxCell>
        <mxCell id="oHGdo065IPko6eHT7Yuo-58" style="edgeStyle=orthogonalEdgeStyle;rounded=0;orthogonalLoop=1;jettySize=auto;html=1;exitX=0.5;exitY=1;exitDx=0;exitDy=0;" parent="1" edge="1">
          <mxGeometry relative="1" as="geometry">
            <mxPoint x="-675" y="1100" as="sourcePoint" />
            <mxPoint x="-675" y="1100" as="targetPoint" />
          </mxGeometry>
        </mxCell>
        <mxCell id="oHGdo065IPko6eHT7Yuo-59" value="Entrer les paramÃ¨tres de test&amp;nbsp;" style="html=1;verticalAlign=bottom;endArrow=block;endSize=8;curved=0;rounded=0;endFill=1;" parent="1" target="oHGdo065IPko6eHT7Yuo-81" edge="1">
          <mxGeometry x="-0.0132" relative="1" as="geometry">
            <mxPoint x="-474.5" y="1100" as="targetPoint" />
            <mxPoint x="-682" y="1100" as="sourcePoint" />
            <mxPoint as="offset" />
          </mxGeometry>
        </mxCell>
        <mxCell id="oHGdo065IPko6eHT7Yuo-60" value="Connexion Ã©tablies" style="html=1;verticalAlign=bottom;endArrow=none;endSize=8;curved=0;rounded=0;endFill=0;startArrow=open;startFill=0;dashed=1;" parent="1" edge="1">
          <mxGeometry x="-0.0159" relative="1" as="geometry">
            <mxPoint x="-88" y="1285" as="targetPoint" />
            <mxPoint x="-258.5526315789475" y="1285" as="sourcePoint" />
            <mxPoint as="offset" />
          </mxGeometry>
        </mxCell>
        <mxCell id="oHGdo065IPko6eHT7Yuo-61" value="Machine Virtuelle de test" style="shape=umlLifeline;perimeter=lifelinePerimeter;whiteSpace=wrap;html=1;container=0;dropTarget=0;collapsible=0;recursiveResize=0;outlineConnect=0;portConstraint=eastwest;newEdgeStyle={&quot;edgeStyle&quot;:&quot;elbowEdgeStyle&quot;,&quot;elbow&quot;:&quot;vertical&quot;,&quot;curved&quot;:0,&quot;rounded&quot;:0};" parent="1" vertex="1">
          <mxGeometry x="-160" y="1019" width="145" height="860" as="geometry" />
        </mxCell>
        <mxCell id="oHGdo065IPko6eHT7Yuo-62" value="&lt;span style=&quot;color: rgba(0, 0, 0, 0); font-family: monospace; font-size: 0px; text-align: start;&quot;&gt;%3CmxGraphModel%3E%3Croot%3E%3CmxCell%20id%3D%220%22%2F%3E%3CmxCell%20id%3D%221%22%20parent%3D%220%22%2F%3E%3CmxCell%20id%3D%222%22%20value%3D%22%22%20style%3D%22html%3D1%3Bpoints%3D%5B%5B0%2C0%2C0%2C0%2C5%5D%2C%5B0%2C1%2C0%2C0%2C-5%5D%2C%5B1%2C0%2C0%2C0%2C5%5D%2C%5B1%2C1%2C0%2C0%2C-5%5D%5D%3Bperimeter%3DorthogonalPerimeter%3BoutlineConnect%3D0%3BtargetShapes%3DumlLifeline%3BportConstraint%3Deastwest%3BnewEdgeStyle%3D%7B%26quot%3Bcurved%26quot%3B%3A0%2C%26quot%3Brounded%26quot%3B%3A0%7D%3B%22%20vertex%3D%221%22%20parent%3D%221%22%3E%3CmxGeometry%20x%3D%22-467%22%20y%3D%221100%22%20width%3D%2210%22%20height%3D%2212%22%20as%3D%22geometry%22%2F%3E%3C%2FmxCell%3E%3C%2Froot%3E%3C%2FmxGraphModel%3E&lt;/span&gt;&lt;span style=&quot;color: rgba(0, 0, 0, 0); font-family: monospace; font-size: 0px; text-align: start;&quot;&gt;%3CmxGraphModel%3E%3Croot%3E%3CmxCell%20id%3D%220%22%2F%3E%3CmxCell%20id%3D%221%22%20parent%3D%220%22%2F%3E%3CmxCell%20id%3D%222%22%20value%3D%22%22%20style%3D%22html%3D1%3Bpoints%3D%5B%5B0%2C0%2C0%2C0%2C5%5D%2C%5B0%2C1%2C0%2C0%2C-5%5D%2C%5B1%2C0%2C0%2C0%2C5%5D%2C%5B1%2C1%2C0%2C0%2C-5%5D%5D%3Bperimeter%3DorthogonalPerimeter%3BoutlineConnect%3D0%3BtargetShapes%3DumlLifeline%3BportConstraint%3Deastwest%3BnewEdgeStyle%3D%7B%26quot%3Bcurved%26quot%3B%3A0%2C%26quot%3Brounded%26quot%3B%3A0%7D%3B%22%20vertex%3D%221%22%20parent%3D%221%22%3E%3CmxGeometry%20x%3D%22-467%22%20y%3D%221100%22%20width%3D%2210%22%20height%3D%2212%22%20as%3D%22geometry%22%2F%3E%3C%2FmxCell%3E%3C%2Froot%3E%3C%2FmxGraphModel%3E&lt;/span&gt;" style="html=1;points=[[0,0,0,0,5],[0,1,0,0,-5],[1,0,0,0,5],[1,1,0,0,-5]];perimeter=orthogonalPerimeter;outlineConnect=0;targetShapes=umlLifeline;portConstraint=eastwest;newEdgeStyle={&quot;curved&quot;:0,&quot;rounded&quot;:0};" parent="oHGdo065IPko6eHT7Yuo-61" vertex="1">
          <mxGeometry x="67.5" y="232" width="10" height="108" as="geometry" />
        </mxCell>
        <mxCell id="oHGdo065IPko6eHT7Yuo-63" value="Se Connecter sur la machine" style="html=1;verticalAlign=bottom;endArrow=block;endSize=8;curved=0;rounded=0;endFill=1;" parent="1" edge="1">
          <mxGeometry x="-0.0554" relative="1" as="geometry">
            <mxPoint x="-94" y="1258" as="targetPoint" />
            <mxPoint x="-254" y="1258" as="sourcePoint" />
            <mxPoint as="offset" />
          </mxGeometry>
        </mxCell>
        <mxCell id="oHGdo065IPko6eHT7Yuo-64" value="Lancer des commandes&amp;nbsp;&lt;div&gt;Resperf pour le test&lt;/div&gt;" style="html=1;verticalAlign=bottom;endArrow=block;endSize=8;curved=0;rounded=0;endFill=1;" parent="1" edge="1">
          <mxGeometry x="-0.0132" relative="1" as="geometry">
            <mxPoint x="-94" y="1322" as="targetPoint" />
            <mxPoint x="-256" y="1322" as="sourcePoint" />
            <mxPoint as="offset" />
          </mxGeometry>
        </mxCell>
        <mxCell id="oHGdo065IPko6eHT7Yuo-65" value="RÃ©sultats de test Resperf" style="html=1;verticalAlign=bottom;endArrow=none;endSize=8;curved=0;rounded=0;endFill=0;startArrow=open;startFill=0;dashed=1;" parent="1" edge="1">
          <mxGeometry x="-0.0159" relative="1" as="geometry">
            <mxPoint x="-96" y="1355" as="targetPoint" />
            <mxPoint x="-256" y="1355" as="sourcePoint" />
            <mxPoint as="offset" />
          </mxGeometry>
        </mxCell>
        <mxCell id="oHGdo065IPko6eHT7Yuo-66" value="&amp;nbsp;Traiter et envoyer des rÃ©sultats de test" style="html=1;verticalAlign=bottom;endArrow=none;endSize=8;curved=0;rounded=0;endFill=0;startArrow=open;startFill=0;" parent="1" edge="1">
          <mxGeometry x="-0.0135" relative="1" as="geometry">
            <mxPoint x="-266" y="1368" as="targetPoint" />
            <mxPoint x="-454" y="1368" as="sourcePoint" />
            <mxPoint as="offset" />
          </mxGeometry>
        </mxCell>
        <mxCell id="oHGdo065IPko6eHT7Yuo-67" value="Valeurs de tests et graphes affichÃ©es" style="html=1;verticalAlign=bottom;endArrow=none;endSize=8;curved=0;rounded=0;endFill=0;startArrow=open;startFill=0;dashed=1;" parent="1" edge="1">
          <mxGeometry x="-0.0159" relative="1" as="geometry">
            <mxPoint x="-463.77" y="1380" as="targetPoint" />
            <mxPoint x="-681.9995652173917" y="1380" as="sourcePoint" />
            <mxPoint as="offset" />
          </mxGeometry>
        </mxCell>
        <mxCell id="oHGdo065IPko6eHT7Yuo-68" value="Sauvegarder les rÃ©sultats&amp;nbsp;&lt;div&gt;et tÃ©lÃ©charger le rapport de test&lt;/div&gt;" style="html=1;verticalAlign=bottom;endArrow=block;endSize=8;curved=0;rounded=0;endFill=1;" parent="1" edge="1">
          <mxGeometry x="-0.0132" relative="1" as="geometry">
            <mxPoint x="-470" y="1420" as="targetPoint" />
            <mxPoint x="-681.9995652173917" y="1420" as="sourcePoint" />
            <mxPoint as="offset" />
          </mxGeometry>
        </mxCell>
        <mxCell id="oHGdo065IPko6eHT7Yuo-69" value="Sauvegarder les rÃ©sultats&amp;nbsp;&lt;div&gt;de test dans la BD&lt;/div&gt;" style="html=1;verticalAlign=bottom;endArrow=block;endSize=8;curved=0;rounded=0;endFill=1;" parent="1" edge="1">
          <mxGeometry x="-0.0132" relative="1" as="geometry">
            <mxPoint x="-270" y="1427" as="targetPoint" />
            <mxPoint x="-460" y="1427" as="sourcePoint" />
            <mxPoint as="offset" />
          </mxGeometry>
        </mxCell>
        <mxCell id="oHGdo065IPko6eHT7Yuo-70" value="RequÃªte lancÃ© avec succÃ¨s" style="html=1;verticalAlign=bottom;endArrow=none;endSize=8;curved=0;rounded=0;endFill=0;startArrow=open;startFill=0;dashed=1;entryX=0;entryY=1;entryDx=0;entryDy=-5;entryPerimeter=0;" parent="1" target="oHGdo065IPko6eHT7Yuo-56" edge="1">
          <mxGeometry x="-0.0159" relative="1" as="geometry">
            <mxPoint x="60.5" y="1455" as="targetPoint" />
            <mxPoint x="-256" y="1455" as="sourcePoint" />
            <mxPoint as="offset" />
          </mxGeometry>
        </mxCell>
        <mxCell id="oHGdo065IPko6eHT7Yuo-71" value="Rapport sous forme PDF" style="html=1;verticalAlign=bottom;endArrow=none;endSize=8;curved=0;rounded=0;endFill=0;startArrow=open;startFill=0;dashed=1;" parent="1" edge="1">
          <mxGeometry x="-0.0159" relative="1" as="geometry">
            <mxPoint x="-460" y="1470" as="targetPoint" />
            <mxPoint x="-682" y="1470" as="sourcePoint" />
            <mxPoint as="offset" />
          </mxGeometry>
        </mxCell>
        <mxCell id="oHGdo065IPko6eHT7Yuo-72" value="" style="group" parent="1" vertex="1" connectable="0">
          <mxGeometry x="-682" y="1112" width="427" height="140" as="geometry" />
        </mxCell>
        <mxCell id="oHGdo065IPko6eHT7Yuo-73" value="&lt;b&gt;alt&lt;/b&gt;" style="shape=umlFrame;whiteSpace=wrap;html=1;pointerEvents=0;width=60;height=20;fillColor=#D5E8D4;" parent="oHGdo065IPko6eHT7Yuo-72" vertex="1">
          <mxGeometry width="420" height="110" as="geometry" />
        </mxCell>
        <mxCell id="oHGdo065IPko6eHT7Yuo-74" value="&lt;b&gt;loop&lt;/b&gt;" style="shape=umlFrame;whiteSpace=wrap;html=1;pointerEvents=0;width=60;height=20;fillColor=#D5E8D4;" parent="oHGdo065IPko6eHT7Yuo-72" vertex="1">
          <mxGeometry x="7" y="23" width="410" height="77" as="geometry" />
        </mxCell>
        <mxCell id="oHGdo065IPko6eHT7Yuo-75" value="&lt;font style=&quot;font-size: 10px;&quot;&gt;Envoyer les paramÃ¨tres pour la vÃ©rification&lt;/font&gt;" style="html=1;verticalAlign=bottom;endArrow=block;endSize=8;curved=0;rounded=0;endFill=1;entryX=0.995;entryY=0.411;entryDx=0;entryDy=0;entryPerimeter=0;exitX=1;exitY=0;exitDx=0;exitDy=5;exitPerimeter=0;" parent="oHGdo065IPko6eHT7Yuo-72" edge="1">
          <mxGeometry x="0.0211" y="6" relative="1" as="geometry">
            <mxPoint x="414.9500000000003" y="59.64700000000039" as="targetPoint" />
            <mxPoint x="225" y="59" as="sourcePoint" />
            <mxPoint as="offset" />
          </mxGeometry>
        </mxCell>
        <mxCell id="oHGdo065IPko6eHT7Yuo-76" value="&lt;font style=&quot;font-size: 10px;&quot;&gt;Erreurs&lt;/font&gt;" style="html=1;verticalAlign=bottom;endArrow=none;endSize=8;curved=0;rounded=0;endFill=0;entryX=0.995;entryY=0.62;entryDx=0;entryDy=0;entryPerimeter=0;startArrow=open;startFill=0;dashed=1;exitX=1;exitY=1;exitDx=0;exitDy=-5;exitPerimeter=0;" parent="oHGdo065IPko6eHT7Yuo-72" edge="1">
          <mxGeometry x="-0.0189" relative="1" as="geometry">
            <mxPoint x="411" y="79.79999999999973" as="targetPoint" />
            <mxPoint x="225" y="79" as="sourcePoint" />
            <mxPoint as="offset" />
          </mxGeometry>
        </mxCell>
        <mxCell id="oHGdo065IPko6eHT7Yuo-77" value="&lt;font style=&quot;font-size: 10px;&quot;&gt;ParamÃ¨tres invalides&lt;/font&gt;" style="html=1;verticalAlign=bottom;endArrow=none;endSize=8;curved=0;rounded=0;endFill=0;startArrow=open;startFill=0;dashed=1;exitX=-0.005;exitY=0.801;exitDx=0;exitDy=0;exitPerimeter=0;" parent="oHGdo065IPko6eHT7Yuo-72" source="oHGdo065IPko6eHT7Yuo-74" edge="1">
          <mxGeometry x="0.0142" relative="1" as="geometry">
            <mxPoint x="212" y="83" as="targetPoint" />
            <mxPoint x="13" y="83" as="sourcePoint" />
            <mxPoint as="offset" />
          </mxGeometry>
        </mxCell>
        <mxCell id="oHGdo065IPko6eHT7Yuo-78" value="&lt;b&gt;&lt;font color=&quot;#406b63&quot; style=&quot;font-size: 11px;&quot;&gt;[ ParamÃ¨tres de test invalides ]&lt;/font&gt;&lt;/b&gt;" style="text;html=1;align=center;verticalAlign=middle;whiteSpace=wrap;rounded=0;" parent="oHGdo065IPko6eHT7Yuo-72" vertex="1">
          <mxGeometry x="57.5" y="-8" width="315" height="30" as="geometry" />
        </mxCell>
        <mxCell id="oHGdo065IPko6eHT7Yuo-79" value="ParamÃ¨tres valides" style="html=1;verticalAlign=bottom;endArrow=none;endSize=8;curved=0;rounded=0;endFill=0;startArrow=open;startFill=0;dashed=1;" parent="oHGdo065IPko6eHT7Yuo-72" edge="1">
          <mxGeometry x="-0.0827" relative="1" as="geometry">
            <mxPoint x="415" y="128" as="targetPoint" />
            <mxPoint x="227" y="128" as="sourcePoint" />
            <mxPoint as="offset" />
          </mxGeometry>
        </mxCell>
        <mxCell id="oHGdo065IPko6eHT7Yuo-80" value="DÃ©but de test" style="html=1;verticalAlign=bottom;endArrow=none;endSize=8;curved=0;rounded=0;endFill=0;startArrow=open;startFill=0;dashed=1;" parent="oHGdo065IPko6eHT7Yuo-72" edge="1">
          <mxGeometry x="-0.0159" relative="1" as="geometry">
            <mxPoint x="212" y="133" as="targetPoint" />
            <mxPoint x="0.003529411764816359" y="133" as="sourcePoint" />
            <mxPoint as="offset" />
          </mxGeometry>
        </mxCell>
        <mxCell id="oHGdo065IPko6eHT7Yuo-81" value="" style="html=1;points=[[0,0,0,0,5],[0,1,0,0,-5],[1,0,0,0,5],[1,1,0,0,-5]];perimeter=orthogonalPerimeter;outlineConnect=0;targetShapes=umlLifeline;portConstraint=eastwest;newEdgeStyle={&quot;curved&quot;:0,&quot;rounded&quot;:0};" parent="oHGdo065IPko6eHT7Yuo-72" vertex="1">
          <mxGeometry x="215" y="-12" width="10" height="12" as="geometry" />
        </mxCell>
        <mxCell id="oHGdo065IPko6eHT7Yuo-82" value="&lt;span style=&quot;color: rgba(0, 0, 0, 0); font-family: monospace; font-size: 0px; text-align: start;&quot;&gt;%3CmxGraphModel%3E%3Croot%3E%3CmxCell%20id%3D%220%22%2F%3E%3CmxCell%20id%3D%221%22%20parent%3D%220%22%2F%3E%3CmxCell%20id%3D%222%22%20value%3D%22%22%20style%3D%22html%3D1%3Bpoints%3D%5B%5B0%2C0%2C0%2C0%2C5%5D%2C%5B0%2C1%2C0%2C0%2C-5%5D%2C%5B1%2C0%2C0%2C0%2C5%5D%2C%5B1%2C1%2C0%2C0%2C-5%5D%5D%3Bperimeter%3DorthogonalPerimeter%3BoutlineConnect%3D0%3BtargetShapes%3DumlLifeline%3BportConstraint%3Deastwest%3BnewEdgeStyle%3D%7B%26quot%3Bcurved%26quot%3B%3A0%2C%26quot%3Brounded%26quot%3B%3A0%7D%3B%22%20vertex%3D%221%22%20parent%3D%221%22%3E%3CmxGeometry%20x%3D%22-467%22%20y%3D%221100%22%20width%3D%2210%22%20height%3D%2212%22%20as%3D%22geometry%22%2F%3E%3C%2FmxCell%3E%3C%2Froot%3E%3C%2FmxGraphModel%3E&lt;/span&gt;" style="html=1;points=[[0,0,0,0,5],[0,1,0,0,-5],[1,0,0,0,5],[1,1,0,0,-5]];perimeter=orthogonalPerimeter;outlineConnect=0;targetShapes=umlLifeline;portConstraint=eastwest;newEdgeStyle={&quot;curved&quot;:0,&quot;rounded&quot;:0};" parent="oHGdo065IPko6eHT7Yuo-72" vertex="1">
          <mxGeometry x="215" y="30" width="10" height="60" as="geometry" />
        </mxCell>
        <mxCell id="oHGdo065IPko6eHT7Yuo-83" value="&lt;span style=&quot;color: rgba(0, 0, 0, 0); font-family: monospace; font-size: 0px; text-align: start;&quot;&gt;%3CmxGraphModel%3E%3Croot%3E%3CmxCell%20id%3D%220%22%2F%3E%3CmxCell%20id%3D%221%22%20parent%3D%220%22%2F%3E%3CmxCell%20id%3D%222%22%20value%3D%22%22%20style%3D%22html%3D1%3Bpoints%3D%5B%5B0%2C0%2C0%2C0%2C5%5D%2C%5B0%2C1%2C0%2C0%2C-5%5D%2C%5B1%2C0%2C0%2C0%2C5%5D%2C%5B1%2C1%2C0%2C0%2C-5%5D%5D%3Bperimeter%3DorthogonalPerimeter%3BoutlineConnect%3D0%3BtargetShapes%3DumlLifeline%3BportConstraint%3Deastwest%3BnewEdgeStyle%3D%7B%26quot%3Bcurved%26quot%3B%3A0%2C%26quot%3Brounded%26quot%3B%3A0%7D%3B%22%20vertex%3D%221%22%20parent%3D%221%22%3E%3CmxGeometry%20x%3D%22-467%22%20y%3D%221100%22%20width%3D%2210%22%20height%3D%2212%22%20as%3D%22geometry%22%2F%3E%3C%2FmxCell%3E%3C%2Froot%3E%3C%2FmxGraphModel%3E&lt;/span&gt;" style="html=1;points=[[0,0,0,0,5],[0,1,0,0,-5],[1,0,0,0,5],[1,1,0,0,-5]];perimeter=orthogonalPerimeter;outlineConnect=0;targetShapes=umlLifeline;portConstraint=eastwest;newEdgeStyle={&quot;curved&quot;:0,&quot;rounded&quot;:0};" parent="oHGdo065IPko6eHT7Yuo-72" vertex="1">
          <mxGeometry x="414" y="49" width="10" height="40" as="geometry" />
        </mxCell>
        <mxCell id="oHGdo065IPko6eHT7Yuo-84" value="&lt;font style=&quot;font-size: 10px;&quot;&gt;Retaper les paramÃ¨tres&lt;/font&gt;" style="html=1;verticalAlign=bottom;endArrow=block;curved=0;rounded=0;exitX=0.004;exitY=0.444;exitDx=0;exitDy=0;exitPerimeter=0;" parent="1" edge="1">
          <mxGeometry x="0.0003" relative="1" as="geometry">
            <mxPoint x="-673.3600000000001" y="1166.188" as="sourcePoint" />
            <mxPoint x="-469" y="1167" as="targetPoint" />
            <mxPoint as="offset" />
          </mxGeometry>
        </mxCell>
        <mxCell id="oHGdo065IPko6eHT7Yuo-85" value="&lt;span style=&quot;text-wrap: nowrap;&quot;&gt;Administrateur&amp;nbsp;&lt;/span&gt;&lt;div&gt;&lt;span style=&quot;text-wrap: nowrap;&quot;&gt;SystÃ¨me&lt;/span&gt;&lt;/div&gt;" style="rounded=0;whiteSpace=wrap;html=1;strokeColor=#FFFFFF;" parent="1" vertex="1">
          <mxGeometry x="-733.5" y="1048" width="103" height="21" as="geometry" />
        </mxCell>
        <mxCell id="oHGdo065IPko6eHT7Yuo-86" value="Lancer une requÃªte" style="html=1;verticalAlign=bottom;endArrow=block;endSize=8;curved=0;rounded=0;endFill=1;" parent="1" edge="1">
          <mxGeometry x="-0.0132" relative="1" as="geometry">
            <mxPoint x="222" y="1430" as="targetPoint" />
            <mxPoint x="-254" y="1430" as="sourcePoint" />
            <mxPoint as="offset" />
          </mxGeometry>
        </mxCell>
        <mxCell id="oHGdo065IPko6eHT7Yuo-87" value="RÃ©sultats sauvegardÃ©es avec succÃ¨s" style="html=1;verticalAlign=bottom;endArrow=none;endSize=8;curved=0;rounded=0;endFill=0;startArrow=open;startFill=0;dashed=1;entryX=0;entryY=1;entryDx=0;entryDy=-5;entryPerimeter=0;" parent="1" edge="1">
          <mxGeometry x="-0.0159" relative="1" as="geometry">
            <mxPoint x="-268.5" y="1454.52" as="targetPoint" />
            <mxPoint x="-455" y="1455" as="sourcePoint" />
            <mxPoint as="offset" />
          </mxGeometry>
        </mxCell>
        <mxCell id="oHGdo065IPko6eHT7Yuo-88" value="Machine Virtuelle(Serveur DNS)" style="shape=umlLifeline;perimeter=lifelinePerimeter;whiteSpace=wrap;html=1;container=0;dropTarget=0;collapsible=0;recursiveResize=0;outlineConnect=0;portConstraint=eastwest;newEdgeStyle={&quot;edgeStyle&quot;:&quot;elbowEdgeStyle&quot;,&quot;elbow&quot;:&quot;vertical&quot;,&quot;curved&quot;:0,&quot;rounded&quot;:0};" parent="1" vertex="1">
          <mxGeometry x="-5" y="1020" width="145" height="860" as="geometry" />
        </mxCell>
        <mxCell id="oHGdo065IPko6eHT7Yuo-89" value="&lt;span style=&quot;color: rgba(0, 0, 0, 0); font-family: monospace; font-size: 0px; text-align: start;&quot;&gt;%3CmxGraphModel%3E%3Croot%3E%3CmxCell%20id%3D%220%22%2F%3E%3CmxCell%20id%3D%221%22%20parent%3D%220%22%2F%3E%3CmxCell%20id%3D%222%22%20value%3D%22%22%20style%3D%22html%3D1%3Bpoints%3D%5B%5B0%2C0%2C0%2C0%2C5%5D%2C%5B0%2C1%2C0%2C0%2C-5%5D%2C%5B1%2C0%2C0%2C0%2C5%5D%2C%5B1%2C1%2C0%2C0%2C-5%5D%5D%3Bperimeter%3DorthogonalPerimeter%3BoutlineConnect%3D0%3BtargetShapes%3DumlLifeline%3BportConstraint%3Deastwest%3BnewEdgeStyle%3D%7B%26quot%3Bcurved%26quot%3B%3A0%2C%26quot%3Brounded%26quot%3B%3A0%7D%3B%22%20vertex%3D%221%22%20parent%3D%221%22%3E%3CmxGeometry%20x%3D%22-467%22%20y%3D%221100%22%20width%3D%2210%22%20height%3D%2212%22%20as%3D%22geometry%22%2F%3E%3C%2FmxCell%3E%3C%2Froot%3E%3C%2FmxGraphModel%3E&lt;/span&gt;&lt;span style=&quot;color: rgba(0, 0, 0, 0); font-family: monospace; font-size: 0px; text-align: start;&quot;&gt;%3CmxGraphModel%3E%3Croot%3E%3CmxCell%20id%3D%220%22%2F%3E%3CmxCell%20id%3D%221%22%20parent%3D%220%22%2F%3E%3CmxCell%20id%3D%222%22%20value%3D%22%22%20style%3D%22html%3D1%3Bpoints%3D%5B%5B0%2C0%2C0%2C0%2C5%5D%2C%5B0%2C1%2C0%2C0%2C-5%5D%2C%5B1%2C0%2C0%2C0%2C5%5D%2C%5B1%2C1%2C0%2C0%2C-5%5D%5D%3Bperimeter%3DorthogonalPerimeter%3BoutlineConnect%3D0%3BtargetShapes%3DumlLifeline%3BportConstraint%3Deastwest%3BnewEdgeStyle%3D%7B%26quot%3Bcurved%26quot%3B%3A0%2C%26quot%3Brounded%26quot%3B%3A0%7D%3B%22%20vertex%3D%221%22%20parent%3D%221%22%3E%3CmxGeometry%20x%3D%22-467%22%20y%3D%221100%22%20width%3D%2210%22%20height%3D%2212%22%20as%3D%22geometry%22%2F%3E%3C%2FmxCell%3E%3C%2Froot%3E%3C%2FmxGraphModel%3E&lt;/span&gt;" style="html=1;points=[[0,0,0,0,5],[0,1,0,0,-5],[1,0,0,0,5],[1,1,0,0,-5]];perimeter=orthogonalPerimeter;outlineConnect=0;targetShapes=umlLifeline;portConstraint=eastwest;newEdgeStyle={&quot;curved&quot;:0,&quot;rounded&quot;:0};" parent="oHGdo065IPko6eHT7Yuo-88" vertex="1">
          <mxGeometry x="67.5" y="300" width="10" height="40" as="geometry" />
        </mxCell>
        <mxCell id="oHGdo065IPko6eHT7Yuo-90" value="Simuler un trafic DNS rÃ©el&amp;nbsp;" style="html=1;verticalAlign=bottom;endArrow=block;endSize=8;curved=0;rounded=0;endFill=1;" parent="1" edge="1">
          <mxGeometry x="-0.0132" relative="1" as="geometry">
            <mxPoint x="60" y="1325" as="targetPoint" />
            <mxPoint x="-80" y="1325" as="sourcePoint" />
            <mxPoint as="offset" />
          </mxGeometry>
        </mxCell>
        <mxCell id="oHGdo065IPko6eHT7Yuo-91" value="RÃ©sultats de simulation" style="html=1;verticalAlign=bottom;endArrow=none;endSize=8;curved=0;rounded=0;endFill=0;startArrow=open;startFill=0;dashed=1;" parent="1" edge="1">
          <mxGeometry x="0.025" relative="1" as="geometry">
            <mxPoint x="60" y="1350" as="targetPoint" />
            <mxPoint x="-80" y="1350" as="sourcePoint" />
            <mxPoint as="offset" />
          </mxGeometry>
        </mxCell>
        <mxCell id="oHGdo065IPko6eHT7Yuo-93" value="&lt;p data-pm-slice=&quot;1 1 []&quot;&gt;Envoyer confirmation par email&lt;/p&gt;" style="text;html=1;align=center;verticalAlign=middle;resizable=0;points=[];autosize=1;strokeColor=none;fillColor=none;" parent="1" vertex="1">
          <mxGeometry x="-490" y="210" width="190" height="50" as="geometry" />
        </mxCell>
        <mxCell id="oHGdo065IPko6eHT7Yuo-97" value="" style="shape=umlLifeline;perimeter=lifelinePerimeter;whiteSpace=wrap;html=1;container=1;dropTarget=0;collapsible=0;recursiveResize=0;outlineConnect=0;portConstraint=eastwest;newEdgeStyle={&quot;curved&quot;:0,&quot;rounded&quot;:0};participant=umlActor;" parent="1" vertex="1">
          <mxGeometry x="-121" y="-60" width="20" height="860" as="geometry" />
        </mxCell>
        <mxCell id="oHGdo065IPko6eHT7Yuo-134" value="" style="html=1;points=[[0,0,0,0,5],[0,1,0,0,-5],[1,0,0,0,5],[1,1,0,0,-5]];perimeter=orthogonalPerimeter;outlineConnect=0;targetShapes=umlLifeline;portConstraint=eastwest;newEdgeStyle={&quot;curved&quot;:0,&quot;rounded&quot;:0};" parent="oHGdo065IPko6eHT7Yuo-97" vertex="1">
          <mxGeometry x="6.5" y="170" width="10" height="50" as="geometry" />
        </mxCell>
        <mxCell id="oHGdo065IPko6eHT7Yuo-98" value="Responsable/Assistant RH" style="text;whiteSpace=wrap;html=1;align=center;fillColor=#FFFFFF;" parent="1" vertex="1">
          <mxGeometry x="-192" y="-21" width="165" height="21" as="geometry" />
        </mxCell>
        <mxCell id="oHGdo065IPko6eHT7Yuo-99" value="" style="shape=umlLifeline;perimeter=lifelinePerimeter;whiteSpace=wrap;html=1;container=1;dropTarget=0;collapsible=0;recursiveResize=0;outlineConnect=0;portConstraint=eastwest;newEdgeStyle={&quot;curved&quot;:0,&quot;rounded&quot;:0};participant=umlActor;" parent="1" vertex="1">
          <mxGeometry x="27" y="-61" width="20" height="860" as="geometry" />
        </mxCell>
        <mxCell id="oHGdo065IPko6eHT7Yuo-136" value="" style="html=1;points=[[0,0,0,0,5],[0,1,0,0,-5],[1,0,0,0,5],[1,1,0,0,-5]];perimeter=orthogonalPerimeter;outlineConnect=0;targetShapes=umlLifeline;portConstraint=eastwest;newEdgeStyle={&quot;curved&quot;:0,&quot;rounded&quot;:0};" parent="oHGdo065IPko6eHT7Yuo-99" vertex="1">
          <mxGeometry x="5" y="348" width="10" height="89" as="geometry" />
        </mxCell>
        <mxCell id="oHGdo065IPko6eHT7Yuo-100" value="Validateur Technique" style="text;whiteSpace=wrap;html=1;align=center;fillColor=#FFFFFF;" parent="1" vertex="1">
          <mxGeometry x="-28" y="-21" width="135" height="28" as="geometry" />
        </mxCell>
        <mxCell id="oHGdo065IPko6eHT7Yuo-101" value="" style="shape=umlLifeline;perimeter=lifelinePerimeter;whiteSpace=wrap;html=1;container=1;dropTarget=0;collapsible=0;recursiveResize=0;outlineConnect=0;portConstraint=eastwest;newEdgeStyle={&quot;curved&quot;:0,&quot;rounded&quot;:0};participant=umlActor;" parent="1" vertex="1">
          <mxGeometry x="140" y="-58" width="20" height="860" as="geometry" />
        </mxCell>
        <mxCell id="oHGdo065IPko6eHT7Yuo-135" value="" style="html=1;points=[[0,0,0,0,5],[0,1,0,0,-5],[1,0,0,0,5],[1,1,0,0,-5]];perimeter=orthogonalPerimeter;outlineConnect=0;targetShapes=umlLifeline;portConstraint=eastwest;newEdgeStyle={&quot;curved&quot;:0,&quot;rounded&quot;:0};" parent="oHGdo065IPko6eHT7Yuo-101" vertex="1">
          <mxGeometry x="5" y="231" width="10" height="42" as="geometry" />
        </mxCell>
        <mxCell id="oHGdo065IPko6eHT7Yuo-138" value="" style="html=1;points=[[0,0,0,0,5],[0,1,0,0,-5],[1,0,0,0,5],[1,1,0,0,-5]];perimeter=orthogonalPerimeter;outlineConnect=0;targetShapes=umlLifeline;portConstraint=eastwest;newEdgeStyle={&quot;curved&quot;:0,&quot;rounded&quot;:0};" parent="oHGdo065IPko6eHT7Yuo-101" vertex="1">
          <mxGeometry x="5" y="91.5" width="10" height="42" as="geometry" />
        </mxCell>
        <mxCell id="oHGdo065IPko6eHT7Yuo-102" value="&lt;span style=&quot;color: rgb(32, 33, 36); font-family: &amp;quot;Google Sans&amp;quot;, Arial, sans-serif; text-align: left; background-color: rgb(255, 255, 255);&quot;&gt;&lt;font style=&quot;font-size: 12px;&quot;&gt;Manager&lt;/font&gt;&lt;/span&gt;" style="text;whiteSpace=wrap;html=1;align=center;fillColor=#FFFFFF;" parent="1" vertex="1">
          <mxGeometry x="107" y="-18" width="95" height="28" as="geometry" />
        </mxCell>
        <mxCell id="oHGdo065IPko6eHT7Yuo-103" value="" style="shape=umlLifeline;perimeter=lifelinePerimeter;whiteSpace=wrap;html=1;container=1;dropTarget=0;collapsible=0;recursiveResize=0;outlineConnect=0;portConstraint=eastwest;newEdgeStyle={&quot;curved&quot;:0,&quot;rounded&quot;:0};participant=umlActor;" parent="1" vertex="1">
          <mxGeometry x="-647" y="-54" width="20" height="860" as="geometry" />
        </mxCell>
        <mxCell id="oHGdo065IPko6eHT7Yuo-139" value="" style="html=1;points=[[0,0,0,0,5],[0,1,0,0,-5],[1,0,0,0,5],[1,1,0,0,-5]];perimeter=orthogonalPerimeter;outlineConnect=0;targetShapes=umlLifeline;portConstraint=eastwest;newEdgeStyle={&quot;curved&quot;:0,&quot;rounded&quot;:0};" parent="oHGdo065IPko6eHT7Yuo-103" vertex="1">
          <mxGeometry x="5" y="77.25" width="10" height="72.75" as="geometry" />
        </mxCell>
        <mxCell id="oHGdo065IPko6eHT7Yuo-104" value="&lt;span style=&quot;color: rgb(32, 33, 36); font-family: &amp;quot;Google Sans&amp;quot;, Arial, sans-serif; text-align: left; background-color: rgb(255, 255, 255);&quot;&gt;&lt;font style=&quot;font-size: 12px;&quot;&gt;Administrateur&lt;/font&gt;&lt;/span&gt;" style="text;whiteSpace=wrap;html=1;align=center;" parent="1" vertex="1">
          <mxGeometry x="-692" y="-22" width="110" height="50" as="geometry" />
        </mxCell>
        <mxCell id="oHGdo065IPko6eHT7Yuo-105" value="&lt;p data-pm-slice=&quot;1 1 []&quot;&gt;Rechercher offres de stage&lt;/p&gt;" style="html=1;verticalAlign=bottom;endArrow=block;curved=0;rounded=0;labelBackgroundColor=none;" parent="1" edge="1">
          <mxGeometry x="0.0001" y="-13" relative="1" as="geometry">
            <mxPoint x="-503" y="163" as="sourcePoint" />
            <mxPoint x="-292.72" y="163" as="targetPoint" />
            <mxPoint as="offset" />
          </mxGeometry>
        </mxCell>
        <mxCell id="oHGdo065IPko6eHT7Yuo-106" value="&lt;p data-pm-slice=&quot;1 1 []&quot;&gt;Postuler Ã  une offre&lt;/p&gt;" style="html=1;verticalAlign=bottom;endArrow=block;curved=0;rounded=0;labelBackgroundColor=none;" parent="1" edge="1">
          <mxGeometry x="0.0001" y="-13" relative="1" as="geometry">
            <mxPoint x="-504" y="197" as="sourcePoint" />
            <mxPoint x="-293.71000000000004" y="197" as="targetPoint" />
            <mxPoint as="offset" />
          </mxGeometry>
        </mxCell>
        <mxCell id="oHGdo065IPko6eHT7Yuo-107" value="&lt;p data-pm-slice=&quot;1 1 []&quot;&gt;CrÃ©er comptes utilisateurs&lt;/p&gt;" style="html=1;verticalAlign=bottom;endArrow=block;curved=0;rounded=0;labelBackgroundColor=none;" parent="1" target="oHGdo065IPko6eHT7Yuo-1" edge="1">
          <mxGeometry x="0.0001" y="-13" relative="1" as="geometry">
            <mxPoint x="-634" y="27" as="sourcePoint" />
            <mxPoint x="-413.43" y="27" as="targetPoint" />
            <mxPoint as="offset" />
          </mxGeometry>
        </mxCell>
        <mxCell id="oHGdo065IPko6eHT7Yuo-108" value="&lt;p data-pm-slice=&quot;1 1 []&quot;&gt;GÃ©rer domaines et compÃ©tences de stage&lt;/p&gt;" style="html=1;verticalAlign=bottom;endArrow=block;curved=0;rounded=0;labelBackgroundColor=none;" parent="1" edge="1">
          <mxGeometry x="0.0001" y="-13" relative="1" as="geometry">
            <mxPoint x="-630" y="60" as="sourcePoint" />
            <mxPoint x="-288.5" y="60" as="targetPoint" />
            <mxPoint as="offset" />
          </mxGeometry>
        </mxCell>
        <mxCell id="oHGdo065IPko6eHT7Yuo-109" value="&lt;p data-pm-slice=&quot;1 1 []&quot;&gt;Consulter statistiques globales&lt;/p&gt;" style="html=1;verticalAlign=bottom;endArrow=block;curved=0;rounded=0;labelBackgroundColor=none;" parent="1" edge="1">
          <mxGeometry x="0.0001" y="-13" relative="1" as="geometry">
            <mxPoint x="-630" y="90" as="sourcePoint" />
            <mxPoint x="-288.5" y="90" as="targetPoint" />
            <mxPoint as="offset" />
          </mxGeometry>
        </mxCell>
        <mxCell id="oHGdo065IPko6eHT7Yuo-110" value="&lt;p data-pm-slice=&quot;1 1 []&quot;&gt;S&#39;authentifier&lt;/p&gt;" style="html=1;verticalAlign=bottom;endArrow=none;curved=0;rounded=0;labelBackgroundColor=none;startArrow=block;startFill=1;endFill=0;" parent="1" edge="1">
          <mxGeometry x="0.0001" y="-13" relative="1" as="geometry">
            <mxPoint x="-281.99999999999994" y="120" as="sourcePoint" />
            <mxPoint x="-116" y="120" as="targetPoint" />
            <mxPoint as="offset" />
          </mxGeometry>
        </mxCell>
        <mxCell id="oHGdo065IPko6eHT7Yuo-111" value="&lt;p data-pm-slice=&quot;1 1 []&quot;&gt;CrÃ©er offre de stage&lt;/p&gt;" style="html=1;verticalAlign=bottom;endArrow=none;curved=0;rounded=0;labelBackgroundColor=none;startArrow=block;startFill=1;endFill=0;" parent="1" edge="1">
          <mxGeometry x="0.0001" y="-13" relative="1" as="geometry">
            <mxPoint x="-281.99999999999994" y="150" as="sourcePoint" />
            <mxPoint x="-115" y="150" as="targetPoint" />
            <mxPoint as="offset" />
          </mxGeometry>
        </mxCell>
        <mxCell id="oHGdo065IPko6eHT7Yuo-112" value="&lt;p data-pm-slice=&quot;1 1 []&quot;&gt;Demander validation de l&#39;offre&lt;/p&gt;" style="html=1;verticalAlign=bottom;endArrow=block;curved=0;rounded=0;labelBackgroundColor=none;" parent="1" edge="1">
          <mxGeometry x="0.0011" y="-13" relative="1" as="geometry">
            <mxPoint x="-280" y="180" as="sourcePoint" />
            <mxPoint x="144" y="180" as="targetPoint" />
            <mxPoint as="offset" />
          </mxGeometry>
        </mxCell>
        <mxCell id="oHGdo065IPko6eHT7Yuo-114" value="" style="html=1;verticalAlign=bottom;endArrow=none;endSize=8;curved=0;rounded=0;endFill=0;startArrow=open;startFill=0;dashed=1;" parent="1" edge="1">
          <mxGeometry x="-0.0189" relative="1" as="geometry">
            <mxPoint x="143" y="210" as="targetPoint" />
            <mxPoint x="-284.29999999999995" y="210" as="sourcePoint" />
            <mxPoint as="offset" />
          </mxGeometry>
        </mxCell>
        <mxCell id="oHGdo065IPko6eHT7Yuo-115" value="&lt;p data-pm-slice=&quot;1 1 []&quot;&gt;Valider l&#39;offre&lt;/p&gt;" style="text;html=1;align=center;verticalAlign=middle;resizable=0;points=[];autosize=1;strokeColor=none;fillColor=none;" parent="1" vertex="1">
          <mxGeometry x="-113" y="174" width="90" height="50" as="geometry" />
        </mxCell>
        <mxCell id="oHGdo065IPko6eHT7Yuo-116" value="" style="html=1;verticalAlign=bottom;endArrow=open;endSize=8;curved=0;rounded=0;endFill=0;startArrow=none;startFill=0;dashed=1;" parent="1" edge="1">
          <mxGeometry x="-0.0189" relative="1" as="geometry">
            <mxPoint x="-110" y="255" as="targetPoint" />
            <mxPoint x="-287" y="254.8800000000001" as="sourcePoint" />
            <mxPoint as="offset" />
          </mxGeometry>
        </mxCell>
        <mxCell id="oHGdo065IPko6eHT7Yuo-117" value="&lt;p data-pm-slice=&quot;1 1 []&quot;&gt;Notifier validation&lt;/p&gt;" style="text;html=1;align=center;verticalAlign=middle;resizable=0;points=[];autosize=1;strokeColor=none;fillColor=none;" parent="1" vertex="1">
          <mxGeometry x="-256" y="220" width="120" height="50" as="geometry" />
        </mxCell>
        <mxCell id="oHGdo065IPko6eHT7Yuo-118" value="&lt;p data-pm-slice=&quot;1 1 []&quot;&gt;Programmer entretien technique&lt;/p&gt;" style="html=1;verticalAlign=bottom;endArrow=none;curved=0;rounded=0;labelBackgroundColor=none;startArrow=block;startFill=1;endFill=0;" parent="1" edge="1">
          <mxGeometry x="0.0001" y="-13" relative="1" as="geometry">
            <mxPoint x="-286.99999999999994" y="280" as="sourcePoint" />
            <mxPoint x="-111" y="280" as="targetPoint" />
            <mxPoint as="offset" />
          </mxGeometry>
        </mxCell>
        <mxCell id="oHGdo065IPko6eHT7Yuo-122" value="&lt;p data-pm-slice=&quot;1 1 []&quot;&gt;Envoyer invitation entretien&lt;/p&gt;" style="html=1;verticalAlign=bottom;endArrow=none;curved=0;rounded=0;labelBackgroundColor=none;startArrow=block;startFill=1;endFill=0;" parent="1" target="oHGdo065IPko6eHT7Yuo-2" edge="1">
          <mxGeometry x="0.0001" y="-13" relative="1" as="geometry">
            <mxPoint x="-504" y="294" as="sourcePoint" />
            <mxPoint x="-298" y="294" as="targetPoint" />
            <mxPoint as="offset" />
          </mxGeometry>
        </mxCell>
        <mxCell id="oHGdo065IPko6eHT7Yuo-123" value="&lt;p data-pm-slice=&quot;1 1 []&quot;&gt;Assigner candidature&lt;/p&gt;" style="html=1;verticalAlign=bottom;endArrow=block;curved=0;rounded=0;labelBackgroundColor=none;" parent="1" edge="1">
          <mxGeometry x="0.0001" y="-13" relative="1" as="geometry">
            <mxPoint x="-110" y="297" as="sourcePoint" />
            <mxPoint x="33" y="297" as="targetPoint" />
            <mxPoint as="offset" />
          </mxGeometry>
        </mxCell>
        <mxCell id="oHGdo065IPko6eHT7Yuo-124" value="&lt;p data-pm-slice=&quot;1 1 []&quot;&gt;Remplir fiche stagiaire&lt;/p&gt;" style="html=1;verticalAlign=bottom;endArrow=none;curved=0;rounded=0;labelBackgroundColor=none;startArrow=block;startFill=1;endFill=0;" parent="1" source="oHGdo065IPko6eHT7Yuo-97" edge="1">
          <mxGeometry x="0.0001" y="-13" relative="1" as="geometry">
            <mxPoint x="-135.99999999999994" y="340" as="sourcePoint" />
            <mxPoint x="30" y="340" as="targetPoint" />
            <mxPoint as="offset" />
          </mxGeometry>
        </mxCell>
        <mxCell id="oHGdo065IPko6eHT7Yuo-125" value="&lt;p data-pm-slice=&quot;1 1 []&quot;&gt;Valider/Refuser candidature&lt;/p&gt;" style="html=1;verticalAlign=bottom;endArrow=none;curved=0;rounded=0;labelBackgroundColor=none;startArrow=block;startFill=1;endFill=0;" parent="1" source="oHGdo065IPko6eHT7Yuo-97" edge="1">
          <mxGeometry x="0.0001" y="-13" relative="1" as="geometry">
            <mxPoint x="-90" y="370" as="sourcePoint" />
            <mxPoint x="30" y="369" as="targetPoint" />
            <mxPoint as="offset" />
          </mxGeometry>
        </mxCell>
        <mxCell id="oHGdo065IPko6eHT7Yuo-126" value="&lt;p data-pm-slice=&quot;1 1 []&quot;&gt;Programmer entretien RH&lt;/p&gt;" style="html=1;verticalAlign=bottom;endArrow=none;curved=0;rounded=0;labelBackgroundColor=none;startArrow=block;startFill=1;endFill=0;" parent="1" edge="1">
          <mxGeometry x="0.0001" y="-13" relative="1" as="geometry">
            <mxPoint x="-287.45238095238074" y="397.0000000000002" as="sourcePoint" />
            <mxPoint x="-110" y="397" as="targetPoint" />
            <mxPoint as="offset" />
          </mxGeometry>
        </mxCell>
        <mxCell id="oHGdo065IPko6eHT7Yuo-127" value="&lt;p data-pm-slice=&quot;1 1 []&quot;&gt;Envoyer invitation entretien&lt;/p&gt;" style="html=1;verticalAlign=bottom;endArrow=none;curved=0;rounded=0;labelBackgroundColor=none;startArrow=block;startFill=1;endFill=0;" parent="1" edge="1">
          <mxGeometry x="0.0001" y="-13" relative="1" as="geometry">
            <mxPoint x="-506" y="410" as="sourcePoint" />
            <mxPoint x="-292" y="410" as="targetPoint" />
            <mxPoint as="offset" />
          </mxGeometry>
        </mxCell>
        <mxCell id="oHGdo065IPko6eHT7Yuo-129" value="&lt;p data-pm-slice=&quot;1 1 []&quot;&gt;Accepter/Refuser candidature&lt;/p&gt;" style="html=1;verticalAlign=bottom;endArrow=none;curved=0;rounded=0;labelBackgroundColor=none;startArrow=block;startFill=1;endFill=0;" parent="1" edge="1">
          <mxGeometry x="0.0001" y="-13" relative="1" as="geometry">
            <mxPoint x="-287.45238095238074" y="440.0000000000002" as="sourcePoint" />
            <mxPoint x="-110" y="440" as="targetPoint" />
            <mxPoint as="offset" />
          </mxGeometry>
        </mxCell>
        <mxCell id="oHGdo065IPko6eHT7Yuo-130" value="&lt;p data-pm-slice=&quot;1 1 []&quot;&gt;Envoyer dÃ©cision finale&lt;/p&gt;" style="html=1;verticalAlign=bottom;endArrow=none;curved=0;rounded=0;labelBackgroundColor=none;startArrow=block;startFill=1;endFill=0;" parent="1" edge="1">
          <mxGeometry x="0.0001" y="-13" relative="1" as="geometry">
            <mxPoint x="-505" y="455" as="sourcePoint" />
            <mxPoint x="-292" y="455" as="targetPoint" />
            <mxPoint as="offset" />
          </mxGeometry>
        </mxCell>
        <mxCell id="oHGdo065IPko6eHT7Yuo-131" value="&lt;p data-pm-slice=&quot;1 1 []&quot;&gt;S&#39;authentifier&lt;/p&gt;" style="html=1;verticalAlign=bottom;endArrow=none;curved=0;rounded=0;labelBackgroundColor=none;startArrow=block;startFill=1;endFill=0;entryX=0;entryY=0;entryDx=0;entryDy=5;entryPerimeter=0;" parent="1" source="oHGdo065IPko6eHT7Yuo-2" target="oHGdo065IPko6eHT7Yuo-138" edge="1">
          <mxGeometry x="0.0001" y="-13" relative="1" as="geometry">
            <mxPoint x="-270" y="39" as="sourcePoint" />
            <mxPoint x="140" y="40" as="targetPoint" />
            <mxPoint as="offset" />
          </mxGeometry>
        </mxCell>
        <mxCell id="oHGdo065IPko6eHT7Yuo-132" value="&lt;p data-pm-slice=&quot;1 1 []&quot;&gt;GÃ©rer domaines et compÃ©tences de stage&lt;/p&gt;" style="html=1;verticalAlign=bottom;endArrow=none;curved=0;rounded=0;labelBackgroundColor=none;startArrow=block;startFill=1;endFill=0;" parent="1" edge="1">
          <mxGeometry x="0.0001" y="-13" relative="1" as="geometry">
            <mxPoint x="-282" y="70" as="sourcePoint" />
            <mxPoint x="144" y="70" as="targetPoint" />
            <mxPoint as="offset" />
          </mxGeometry>
        </mxCell>
        <mxCell id="oHGdo065IPko6eHT7Yuo-133" value="&lt;p data-pm-slice=&quot;1 1 []&quot;&gt;S&#39;authentifier&lt;/p&gt;" style="html=1;verticalAlign=bottom;endArrow=none;curved=0;rounded=0;labelBackgroundColor=none;startArrow=block;startFill=1;endFill=0;" parent="1" source="oHGdo065IPko6eHT7Yuo-1" edge="1">
          <mxGeometry x="0.0001" y="-13" relative="1" as="geometry">
            <mxPoint x="-114" y="319" as="sourcePoint" />
            <mxPoint x="30" y="319" as="targetPoint" />
            <mxPoint as="offset" />
          </mxGeometry>
        </mxCell>
      </root>
    </mxGraphModel>
  </diagram>
</mxfile>
